<svg width="57" height="50" viewBox="0 0 57 50" fill="none" xmlns="http://www.w3.org/2000/svg">
<path d="M26.4335 49.4039C26.9587 49.6933 27.5501 49.8411 28.1496 49.8331C28.7492 49.825 29.3363 49.6613 29.8535 49.3579C37.0215 45.2639 49.4735 35.8359 54.3635 23.5899C61.5435 7.64394 44.6875 -5.08406 33.0395 4.06994C31.8235 5.02594 30.2955 6.11994 29.2455 7.15394C28.7695 7.62194 27.9315 7.66994 27.4375 7.22194C26.0575 5.96194 23.8955 4.34994 22.5075 3.41194C12.5775 -3.30806 -5.49248 5.54994 2.21552 24.4519C5.03952 32.9359 18.4955 44.9719 26.4335 49.4039Z" fill="url(#paint0_radial_7_3)"/>
<path d="M26.4335 49.4039C26.9587 49.6933 27.5501 49.8411 28.1496 49.8331C28.7492 49.825 29.3363 49.6613 29.8535 49.3579C37.0215 45.2639 49.4735 35.8359 54.3635 23.5899C61.5435 7.64394 44.6875 -5.08406 33.0395 4.06994C31.8235 5.02594 30.2955 6.11994 29.2455 7.15394C28.7695 7.62194 27.9315 7.66994 27.4375 7.22194C26.0575 5.96194 23.8955 4.34994 22.5075 3.41194C12.5775 -3.30806 -5.49248 5.54994 2.21552 24.4519C5.03952 32.9359 18.4955 44.9719 26.4335 49.4039Z" fill="url(#paint1_radial_7_3)"/>
<path d="M26.4335 49.4039C26.9587 49.6933 27.5501 49.8411 28.1496 49.8331C28.7492 49.825 29.3363 49.6613 29.8535 49.3579C37.0215 45.2639 49.4735 35.8359 54.3635 23.5899C61.5435 7.64394 44.6875 -5.08406 33.0395 4.06994C31.8235 5.02594 30.2955 6.11994 29.2455 7.15394C28.7695 7.62194 27.9315 7.66994 27.4375 7.22194C26.0575 5.96194 23.8955 4.34994 22.5075 3.41194C12.5775 -3.30806 -5.49248 5.54994 2.21552 24.4519C5.03952 32.9359 18.4955 44.9719 26.4335 49.4039Z" fill="url(#paint2_radial_7_3)"/>
<path d="M26.4335 49.4039C26.9587 49.6933 27.5501 49.8411 28.1496 49.8331C28.7492 49.825 29.3363 49.6613 29.8535 49.3579C37.0215 45.2639 49.4735 35.8359 54.3635 23.5899C61.5435 7.64394 44.6875 -5.08406 33.0395 4.06994C31.8235 5.02594 30.2955 6.11994 29.2455 7.15394C28.7695 7.62194 27.9315 7.66994 27.4375 7.22194C26.0575 5.96194 23.8955 4.34994 22.5075 3.41194C12.5775 -3.30806 -5.49248 5.54994 2.21552 24.4519C5.03952 32.9359 18.4955 44.9719 26.4335 49.4039Z" fill="url(#paint3_radial_7_3)"/>
<path d="M26.4335 49.4039C26.9587 49.6933 27.5501 49.8411 28.1496 49.8331C28.7492 49.825 29.3363 49.6613 29.8535 49.3579C37.0215 45.2639 49.4735 35.8359 54.3635 23.5899C61.5435 7.64394 44.6875 -5.08406 33.0395 4.06994C31.8235 5.02594 30.2955 6.11994 29.2455 7.15394C28.7695 7.62194 27.9315 7.66994 27.4375 7.22194C26.0575 5.96194 23.8955 4.34994 22.5075 3.41194C12.5775 -3.30806 -5.49248 5.54994 2.21552 24.4519C5.03952 32.9359 18.4955 44.9719 26.4335 49.4039Z" fill="url(#paint4_linear_7_3)"/>
<path d="M26.4335 49.4039C26.9587 49.6933 27.5501 49.8411 28.1496 49.8331C28.7492 49.825 29.3363 49.6613 29.8535 49.3579C37.0215 45.2639 49.4735 35.8359 54.3635 23.5899C61.5435 7.64394 44.6875 -5.08406 33.0395 4.06994C31.8235 5.02594 30.2955 6.11994 29.2455 7.15394C28.7695 7.62194 27.9315 7.66994 27.4375 7.22194C26.0575 5.96194 23.8955 4.34994 22.5075 3.41194C12.5775 -3.30806 -5.49248 5.54994 2.21552 24.4519C5.03952 32.9359 18.4955 44.9719 26.4335 49.4039Z" fill="url(#paint5_linear_7_3)"/>
<path d="M26.4335 49.4039C26.9587 49.6933 27.5501 49.8411 28.1496 49.8331C28.7492 49.825 29.3363 49.6613 29.8535 49.3579C37.0215 45.2639 49.4735 35.8359 54.3635 23.5899C61.5435 7.64394 44.6875 -5.08406 33.0395 4.06994C31.8235 5.02594 30.2955 6.11994 29.2455 7.15394C28.7695 7.62194 27.9315 7.66994 27.4375 7.22194C26.0575 5.96194 23.8955 4.34994 22.5075 3.41194C12.5775 -3.30806 -5.49248 5.54994 2.21552 24.4519C5.03952 32.9359 18.4955 44.9719 26.4335 49.4039Z" fill="url(#paint6_radial_7_3)" fill-opacity="0.6"/>
<g filter="url(#filter0_f_7_3)">
<path d="M27.8154 12.0798V25.7258C27.8154 27.5358 30.0074 28.3938 31.1354 26.9798C34.6254 22.5998 37.4414 17.2778 34.2994 12.9298C33.0954 11.2618 30.7874 10.1938 28.9014 10.5338C28.1974 10.6598 27.8154 11.3638 27.8154 12.0818" fill="#FA1C56"/>
</g>
<g filter="url(#filter1_f_7_3)">
<path d="M50.4835 19.0601C54.0175 15.6247 54.573 10.4642 51.7242 7.53373C48.8755 4.60328 43.7013 5.01265 40.1674 8.44807C36.6334 11.8835 36.0779 17.0441 38.9267 19.9745C41.7754 22.9049 46.9496 22.4956 50.4835 19.0601Z" fill="url(#paint7_radial_7_3)"/>
</g>
<g filter="url(#filter2_f_7_3)">
<path d="M42.8304 3.84058C44.6858 4.07382 46.2297 3.94662 46.2787 3.55646C46.3278 3.16631 44.8634 2.66094 43.008 2.4277C41.1526 2.19445 39.6087 2.32165 39.5596 2.71181C39.5106 3.10197 40.9749 3.60733 42.8304 3.84058Z" fill="#FF7383"/>
</g>
<g filter="url(#filter3_f_7_3)">
<path d="M14.7833 3.6035C16.461 3.58309 17.8184 3.3436 17.815 3.06858C17.8117 2.79356 16.4489 2.58716 14.7712 2.60758C13.0935 2.62799 11.7361 2.86748 11.7395 3.14249C11.7428 3.41751 13.1056 3.62391 14.7833 3.6035Z" fill="#FF93BA" fill-opacity="0.5"/>
</g>
<g filter="url(#filter4_f_7_3)">
<path d="M25.6892 10.924L26.3152 31.424C12.5652 18.048 9.91924 8.656 15.1892 6.548C20.1892 4.548 24.1892 7.798 25.6892 10.924Z" fill="url(#paint8_radial_7_3)"/>
</g>
<g filter="url(#filter5_f_7_3)">
<path d="M24.6895 9.72383C23.0095 9.48383 22.4895 8.08983 22.4395 7.42383C23.3995 8.42383 24.3395 8.50783 24.6895 8.42383V9.72383Z" fill="#FF7383"/>
</g>
<defs>
<filter id="filter0_f_7_3" x="25.8154" y="8.4707" width="11.8457" height="21.2153" filterUnits="userSpaceOnUse" color-interpolation-filters="sRGB">
<feFlood flood-opacity="0" result="BackgroundImageFix"/>
<feBlend mode="normal" in="SourceGraphic" in2="BackgroundImageFix" result="shape"/>
<feGaussianBlur stdDeviation="1" result="effect1_foregroundBlur_7_3"/>
</filter>
<filter id="filter1_f_7_3" x="35.6064" y="4.07812" width="19.4385" height="19.3521" filterUnits="userSpaceOnUse" color-interpolation-filters="sRGB">
<feFlood flood-opacity="0" result="BackgroundImageFix"/>
<feBlend mode="normal" in="SourceGraphic" in2="BackgroundImageFix" result="shape"/>
<feGaussianBlur stdDeviation="0.75" result="effect1_foregroundBlur_7_3"/>
</filter>
<filter id="filter2_f_7_3" x="37.5586" y="0.311035" width="10.7217" height="5.64648" filterUnits="userSpaceOnUse" color-interpolation-filters="sRGB">
<feFlood flood-opacity="0" result="BackgroundImageFix"/>
<feBlend mode="normal" in="SourceGraphic" in2="BackgroundImageFix" result="shape"/>
<feGaussianBlur stdDeviation="1" result="effect1_foregroundBlur_7_3"/>
</filter>
<filter id="filter3_f_7_3" x="10.2393" y="1.10596" width="9.07617" height="3.99902" filterUnits="userSpaceOnUse" color-interpolation-filters="sRGB">
<feFlood flood-opacity="0" result="BackgroundImageFix"/>
<feBlend mode="normal" in="SourceGraphic" in2="BackgroundImageFix" result="shape"/>
<feGaussianBlur stdDeviation="0.75" result="effect1_foregroundBlur_7_3"/>
</filter>
<filter id="filter4_f_7_3" x="9.66504" y="2.93262" width="19.6504" height="31.4912" filterUnits="userSpaceOnUse" color-interpolation-filters="sRGB">
<feFlood flood-opacity="0" result="BackgroundImageFix"/>
<feBlend mode="normal" in="SourceGraphic" in2="BackgroundImageFix" result="shape"/>
<feGaussianBlur stdDeviation="1.5" result="effect1_foregroundBlur_7_3"/>
</filter>
<filter id="filter5_f_7_3" x="21.4395" y="6.42383" width="4.25" height="4.2998" filterUnits="userSpaceOnUse" color-interpolation-filters="sRGB">
<feFlood flood-opacity="0" result="BackgroundImageFix"/>
<feBlend mode="normal" in="SourceGraphic" in2="BackgroundImageFix" result="shape"/>
<feGaussianBlur stdDeviation="0.5" result="effect1_foregroundBlur_7_3"/>
</filter>
<radialGradient id="paint0_radial_7_3" cx="0" cy="0" r="1" gradientUnits="userSpaceOnUse" gradientTransform="translate(27.7655 2.26794) rotate(90) scale(45.969 48.8042)">
<stop stop-color="#FC0000"/>
<stop offset="0.528" stop-color="#FF3B79"/>
<stop offset="1" stop-color="#F724B3"/>
</radialGradient>
<radialGradient id="paint1_radial_7_3" cx="0" cy="0" r="1" gradientUnits="userSpaceOnUse" gradientTransform="translate(42.0495 13.7259) rotate(134.402) scale(42.5294 79.6616)">
<stop offset="0.798" stop-color="#C82092" stop-opacity="0"/>
<stop offset="0.908" stop-color="#C82092"/>
</radialGradient>
<radialGradient id="paint2_radial_7_3" cx="0" cy="0" r="1" gradientUnits="userSpaceOnUse" gradientTransform="translate(35.9935 26.5779) rotate(-158.663) scale(45.498 64.318)">
<stop offset="0.41" stop-color="#B91D43" stop-opacity="0"/>
<stop offset="0.834" stop-color="#B91D43"/>
</radialGradient>
<radialGradient id="paint3_radial_7_3" cx="0" cy="0" r="1" gradientUnits="userSpaceOnUse" gradientTransform="translate(27.1195 18.6319) rotate(90) scale(39.5984 39.5984)">
<stop offset="0.671" stop-color="#FF7AF2" stop-opacity="0"/>
<stop offset="0.934" stop-color="#FFBCE6"/>
</radialGradient>
<linearGradient id="paint4_linear_7_3" x1="31.4895" y1="23.2659" x2="47.5155" y2="42.3379" gradientUnits="userSpaceOnUse">
<stop offset="0.694" stop-color="#FF7AF2" stop-opacity="0"/>
<stop offset="0.934" stop-color="#FFBCE6"/>
</linearGradient>
<linearGradient id="paint5_linear_7_3" x1="29.5035" y1="24.0599" x2="10.6975" y2="45.2499" gradientUnits="userSpaceOnUse">
<stop offset="0.694" stop-color="#FF7AF2" stop-opacity="0"/>
<stop offset="0.934" stop-color="#FFBCE6"/>
</linearGradient>
<radialGradient id="paint6_radial_7_3" cx="0" cy="0" r="1" gradientUnits="userSpaceOnUse" gradientTransform="translate(32.6935 16.7919) rotate(164.618) scale(34.4292 36.3604)">
<stop offset="0.802" stop-color="#FF73A6" stop-opacity="0"/>
<stop offset="1" stop-color="#FF93BA"/>
</radialGradient>
<radialGradient id="paint7_radial_7_3" cx="0" cy="0" r="1" gradientUnits="userSpaceOnUse" gradientTransform="translate(51.5425 7.36276) rotate(128.737) scale(14.5827 19.3912)">
<stop stop-color="#FF7383"/>
<stop offset="1" stop-color="#FF7383" stop-opacity="0"/>
</radialGradient>
<radialGradient id="paint8_radial_7_3" cx="0" cy="0" r="1" gradientUnits="userSpaceOnUse" gradientTransform="translate(28.6892 18.68) rotate(-135.591) scale(25.3722 45.04)">
<stop stop-color="#FF6274"/>
<stop offset="1" stop-color="#FF6274" stop-opacity="0"/>
</radialGradient>
</defs>
</svg>
